<svg width="54" height="54" fill="none" xmlns="http://www.w3.org/2000/svg"><path d="M54 27a27.083 27.083 0 0 1-.655 5.938 26.726 26.726 0 0 1-3.522 8.488 27.031 27.031 0 0 1-8.397 8.397 26.723 26.723 0 0 1-8.488 3.522c-3.91.873-7.965.873-11.876 0a26.723 26.723 0 0 1-8.488-3.522 27.032 27.032 0 0 1-8.397-8.397 26.726 26.726 0 0 1-3.522-8.488 27.264 27.264 0 0 1 0-11.88A27.037 27.037 0 0 1 21.062.655a27.244 27.244 0 0 1 11.876 0 27.049 27.049 0 0 1 20.407 20.403c.437 1.95.657 3.943.655 5.942Z" fill="#fff"/><path d="M27.001 43.155c8.923 0 16.157-7.234 16.157-16.157s-7.234-16.156-16.157-16.156-16.156 7.233-16.156 16.156c0 8.923 7.233 16.157 16.156 16.157ZM32.937.655l-1.474 5.417h-8.927L21.061.655a27.245 27.245 0 0 1 11.876 0ZM32.937 53.346c-3.91.873-7.965.873-11.875 0l1.474-5.422h8.926l1.475 5.422ZM49.822 12.573l-4.87 2.785-6.311-6.315 2.78-4.871a27.014 27.014 0 0 1 8.401 8.401ZM15.357 44.951l-2.784 4.871a27.032 27.032 0 0 1-8.397-8.397l4.87-2.784 6.312 6.31ZM54 27a27.077 27.077 0 0 1-.655 5.938l-5.417-1.474v-8.926l5.417-1.48c.437 1.951.657 3.944.655 5.943ZM6.072 22.538v8.926L.655 32.938a27.264 27.264 0 0 1 0-11.88l5.417 1.48ZM49.822 41.425a27.031 27.031 0 0 1-8.397 8.397l-2.784-4.87 6.31-6.311 4.871 2.784ZM15.357 9.043l-6.31 6.315-4.871-2.785a27.014 27.014 0 0 1 8.401-8.401l2.78 4.87Z" fill="#18C553"/><path d="M28.563 20.594V32h-2.07v-8.992l-2.743.906v-1.672l4.578-1.648h.235Z" fill="#fff"/></svg>