<svg width="54" height="54" fill="none" xmlns="http://www.w3.org/2000/svg"><path d="M54 27a27.083 27.083 0 0 1-.655 5.938 26.726 26.726 0 0 1-3.522 8.488 27.031 27.031 0 0 1-8.397 8.397 26.723 26.723 0 0 1-8.488 3.522c-3.91.873-7.965.873-11.876 0a26.723 26.723 0 0 1-8.488-3.522 27.032 27.032 0 0 1-8.397-8.397 26.726 26.726 0 0 1-3.522-8.488 27.264 27.264 0 0 1 0-11.88A27.037 27.037 0 0 1 21.062.655a27.244 27.244 0 0 1 11.876 0 27.049 27.049 0 0 1 20.407 20.403c.437 1.95.657 3.943.655 5.942Z" fill="#fff"/><path d="M27.001 43.155c8.923 0 16.157-7.234 16.157-16.157s-7.234-16.156-16.157-16.156-16.156 7.233-16.156 16.156c0 8.923 7.233 16.157 16.156 16.157ZM32.937.655l-1.474 5.417h-8.927L21.061.655a27.245 27.245 0 0 1 11.876 0ZM32.937 53.346c-3.91.873-7.965.873-11.875 0l1.474-5.422h8.926l1.475 5.422ZM49.822 12.573l-4.87 2.785-6.311-6.315 2.78-4.871a27.014 27.014 0 0 1 8.401 8.401ZM15.357 44.951l-2.784 4.871a27.032 27.032 0 0 1-8.397-8.397l4.87-2.784 6.312 6.31ZM54 27a27.077 27.077 0 0 1-.655 5.938l-5.417-1.474v-8.926l5.417-1.48c.437 1.951.657 3.944.655 5.943ZM6.072 22.538v8.926L.655 32.938a27.264 27.264 0 0 1 0-11.88l5.417 1.48ZM49.822 41.425a27.031 27.031 0 0 1-8.397 8.397l-2.784-4.87 6.31-6.311 4.871 2.784ZM15.357 9.043l-6.31 6.315-4.871-2.785a27.014 27.014 0 0 1 8.401-8.401l2.78 4.87Z" fill="#EB7939"/><path d="m16.156 26.766-1.648-.399.633-5.742h6.257v1.71h-4.546l-.297 2.657c.161-.099.396-.198.703-.297a3.324 3.324 0 0 1 1.055-.156c.541 0 1.026.089 1.453.266.427.172.789.422 1.086.75.302.328.528.729.68 1.203.155.469.234 1 .234 1.594 0 .52-.078 1.01-.235 1.468a3.468 3.468 0 0 1-.695 1.211 3.303 3.303 0 0 1-1.18.828c-.474.198-1.031.297-1.672.297-.484 0-.95-.07-1.398-.21a3.926 3.926 0 0 1-1.195-.634 3.206 3.206 0 0 1-.852-1.03 3.314 3.314 0 0 1-.344-1.4h2.04c.036.35.13.647.28.891.152.245.35.433.594.563.25.13.54.195.868.195.296 0 .552-.054.765-.164.219-.114.399-.273.54-.476a2.15 2.15 0 0 0 .312-.72c.067-.275.101-.577.101-.905 0-.318-.039-.607-.117-.868a1.883 1.883 0 0 0-.36-.687 1.597 1.597 0 0 0-.609-.445 2.104 2.104 0 0 0-.843-.157c-.433 0-.766.065-1 .196-.23.13-.433.284-.61.46Zm14.625-1.43v1.914c0 .875-.088 1.622-.265 2.242-.177.62-.433 1.128-.766 1.524-.333.39-.732.68-1.195.867-.464.182-.98.273-1.547.273-.453 0-.875-.057-1.266-.172a3.23 3.23 0 0 1-1.055-.547 3.438 3.438 0 0 1-.796-.953 5.005 5.005 0 0 1-.508-1.382 8.925 8.925 0 0 1-.172-1.852v-1.914c0-.875.088-1.62.266-2.234.182-.615.44-1.118.773-1.508.333-.39.732-.675 1.195-.852.464-.182.98-.273 1.547-.273.459 0 .88.057 1.266.172.39.114.74.294 1.047.539.312.24.578.552.797.937.218.38.385.839.5 1.375.12.531.18 1.146.18 1.844ZM28.72 27.53v-2.484c0-.438-.026-.818-.078-1.14a3.55 3.55 0 0 0-.211-.837 1.663 1.663 0 0 0-.352-.554 1.292 1.292 0 0 0-.484-.32 1.716 1.716 0 0 0-.602-.102c-.27 0-.513.054-.726.164-.214.104-.394.27-.54.5-.145.229-.257.534-.335.914-.073.375-.11.833-.11 1.375v2.484c0 .438.024.82.07 1.149.053.328.126.61.22.843.098.235.215.428.35.579.142.145.303.255.485.328.183.067.383.101.602.101.276 0 .518-.054.726-.164.214-.11.394-.281.54-.515.145-.24.255-.55.328-.93a7.11 7.11 0 0 0 .117-1.39Zm11.203-2.195v1.914c0 .875-.089 1.622-.266 2.242-.177.62-.432 1.128-.765 1.524-.334.39-.732.68-1.196.867-.463.182-.979.273-1.547.273-.453 0-.875-.057-1.265-.172a3.23 3.23 0 0 1-1.055-.547 3.438 3.438 0 0 1-.797-.953 5.005 5.005 0 0 1-.508-1.382 8.932 8.932 0 0 1-.171-1.852v-1.914c0-.875.088-1.62.265-2.234.183-.615.44-1.118.774-1.508.333-.39.731-.675 1.195-.852.464-.182.98-.273 1.547-.273.458 0 .88.057 1.265.172.391.114.74.294 1.047.539.313.24.578.552.797.937.219.38.386.839.5 1.375.12.531.18 1.146.18 1.844Zm-2.063 2.195v-2.484c0-.438-.026-.818-.078-1.14a3.545 3.545 0 0 0-.21-.837 1.663 1.663 0 0 0-.352-.554 1.292 1.292 0 0 0-.485-.32 1.716 1.716 0 0 0-.601-.102c-.271 0-.513.054-.727.164-.213.104-.393.27-.539.5-.146.229-.258.534-.336.914-.073.375-.11.833-.11 1.375v2.484c0 .438.024.82.071 1.149.052.328.125.61.219.843.099.235.216.428.352.579.14.145.302.255.484.328.182.067.383.101.601.101.276 0 .519-.054.727-.164.214-.11.393-.281.54-.515.145-.24.254-.55.327-.93a7.11 7.11 0 0 0 .117-1.39Z" fill="#fff"/></svg>