<svg width="54" height="54" fill="none" xmlns="http://www.w3.org/2000/svg"><path d="M54 27a27.083 27.083 0 0 1-.655 5.938 26.726 26.726 0 0 1-3.522 8.488 27.031 27.031 0 0 1-8.397 8.397 26.723 26.723 0 0 1-8.488 3.522c-3.91.873-7.965.873-11.876 0a26.723 26.723 0 0 1-8.488-3.522 27.032 27.032 0 0 1-8.397-8.397 26.726 26.726 0 0 1-3.522-8.488 27.264 27.264 0 0 1 0-11.88A27.037 27.037 0 0 1 21.062.655a27.244 27.244 0 0 1 11.876 0 27.049 27.049 0 0 1 20.407 20.403c.437 1.95.657 3.943.655 5.942Z" fill="#fff"/><path d="M27.001 43.155c8.923 0 16.157-7.234 16.157-16.157s-7.234-16.156-16.157-16.156-16.156 7.233-16.156 16.156c0 8.923 7.233 16.157 16.156 16.157ZM32.937.655l-1.474 5.417h-8.927L21.061.655a27.245 27.245 0 0 1 11.876 0ZM32.937 53.346c-3.91.873-7.965.873-11.875 0l1.474-5.422h8.926l1.475 5.422ZM49.822 12.573l-4.87 2.785-6.311-6.315 2.78-4.871a27.014 27.014 0 0 1 8.401 8.401ZM15.357 44.951l-2.784 4.871a27.032 27.032 0 0 1-8.397-8.397l4.87-2.784 6.312 6.31ZM54 27a27.077 27.077 0 0 1-.655 5.938l-5.417-1.474v-8.926l5.417-1.48c.437 1.951.657 3.944.655 5.943ZM6.072 22.538v8.926L.655 32.938a27.264 27.264 0 0 1 0-11.88l5.417 1.48ZM49.822 41.425a27.031 27.031 0 0 1-8.397 8.397l-2.784-4.87 6.31-6.311 4.871 2.784ZM15.357 9.043l-6.31 6.315-4.871-2.785a27.014 27.014 0 0 1 8.401-8.401l2.78 4.87Z" fill="#8E18C5"/><path d="M23.438 25.336v1.914c0 .875-.089 1.622-.266 2.242-.177.62-.432 1.128-.766 1.524-.333.39-.732.68-1.195.867-.464.182-.98.273-1.547.273-.453 0-.875-.057-1.266-.172a3.228 3.228 0 0 1-1.054-.547 3.436 3.436 0 0 1-.797-.953 5.001 5.001 0 0 1-.508-1.382 8.925 8.925 0 0 1-.172-1.852v-1.914c0-.875.089-1.62.266-2.234.182-.615.44-1.118.773-1.508.334-.39.732-.675 1.196-.852.463-.182.979-.273 1.546-.273.459 0 .88.057 1.266.172.39.114.74.294 1.047.539.312.24.578.552.797.937.219.38.385.839.5 1.375.12.531.18 1.146.18 1.844Zm-2.063 2.195v-2.484a7.26 7.26 0 0 0-.078-1.14 3.55 3.55 0 0 0-.211-.837 1.663 1.663 0 0 0-.352-.554 1.292 1.292 0 0 0-.484-.32 1.716 1.716 0 0 0-.602-.102c-.27 0-.513.054-.726.164-.214.104-.393.27-.54.5-.145.229-.257.534-.335.914-.073.375-.11.833-.11 1.375v2.484c0 .438.024.82.07 1.149.053.328.126.61.22.843.099.235.216.428.351.579.14.145.302.255.485.328.182.067.382.101.601.101.276 0 .518-.054.727-.164.213-.11.393-.281.539-.515.146-.24.255-.55.328-.93a7.11 7.11 0 0 0 .117-1.39Zm3.867 3.461c0-.312.107-.575.32-.789.214-.213.503-.32.868-.32.364 0 .653.107.867.32.213.214.32.477.32.79 0 .306-.107.567-.32.78-.214.209-.503.313-.867.313-.365 0-.654-.104-.867-.313a1.063 1.063 0 0 1-.32-.78Zm12.055-.617V32h-7.703v-1.39l3.695-3.993c.386-.437.69-.818.914-1.14.224-.323.383-.615.477-.875.099-.266.148-.519.148-.758a2.09 2.09 0 0 0-.187-.914 1.403 1.403 0 0 0-.547-.617c-.235-.146-.524-.22-.867-.22-.38 0-.706.09-.977.266a1.651 1.651 0 0 0-.61.72 2.592 2.592 0 0 0-.203 1.054h-2.07c0-.672.156-1.284.469-1.836a3.488 3.488 0 0 1 1.344-1.336c.583-.333 1.276-.5 2.078-.5.781 0 1.442.13 1.984.39.542.256.953.62 1.235 1.094.28.474.421 1.04.421 1.696 0 .364-.06.724-.18 1.078-.119.354-.288.705-.507 1.054a9.166 9.166 0 0 1-.766 1.047 18.24 18.24 0 0 1-.992 1.086l-2.219 2.469h5.063Z" fill="#fff"/></svg>