<svg width="54" height="54" fill="none" xmlns="http://www.w3.org/2000/svg"><path d="M54 27a27.083 27.083 0 0 1-.655 5.938 26.726 26.726 0 0 1-3.522 8.488 27.031 27.031 0 0 1-8.397 8.397 26.723 26.723 0 0 1-8.488 3.522c-3.91.873-7.965.873-11.876 0a26.723 26.723 0 0 1-8.488-3.522 27.032 27.032 0 0 1-8.397-8.397 26.726 26.726 0 0 1-3.522-8.488 27.264 27.264 0 0 1 0-11.88A27.037 27.037 0 0 1 21.062.655a27.244 27.244 0 0 1 11.876 0 27.049 27.049 0 0 1 20.407 20.403c.437 1.95.657 3.943.655 5.942Z" fill="#fff"/><path d="M27.001 43.155c8.923 0 16.157-7.234 16.157-16.157s-7.234-16.156-16.157-16.156-16.156 7.233-16.156 16.156c0 8.923 7.233 16.157 16.156 16.157ZM32.937.655l-1.474 5.417h-8.927L21.061.655a27.245 27.245 0 0 1 11.876 0ZM32.937 53.346c-3.91.873-7.965.873-11.875 0l1.474-5.422h8.926l1.475 5.422ZM49.822 12.573l-4.87 2.785-6.311-6.315 2.78-4.871a27.014 27.014 0 0 1 8.401 8.401ZM15.357 44.951l-2.784 4.871a27.032 27.032 0 0 1-8.397-8.397l4.87-2.784 6.312 6.31ZM54 27a27.077 27.077 0 0 1-.655 5.938l-5.417-1.474v-8.926l5.417-1.48c.437 1.951.657 3.944.655 5.943ZM6.072 22.538v8.926L.655 32.938a27.264 27.264 0 0 1 0-11.88l5.417 1.48ZM49.822 41.425a27.031 27.031 0 0 1-8.397 8.397l-2.784-4.87 6.31-6.311 4.871 2.784ZM15.357 9.043l-6.31 6.315-4.871-2.785a27.014 27.014 0 0 1 8.401-8.401l2.78 4.87Z" fill="#599F22"/><path d="M25.883 30.375V32H18.18v-1.39l3.695-3.993c.385-.437.69-.818.914-1.14.224-.323.383-.615.477-.875.099-.266.148-.519.148-.758a2.09 2.09 0 0 0-.187-.914 1.403 1.403 0 0 0-.547-.617c-.235-.146-.524-.22-.867-.22-.38 0-.706.09-.977.266a1.651 1.651 0 0 0-.61.72 2.59 2.59 0 0 0-.203 1.054h-2.07c0-.672.156-1.284.469-1.836a3.487 3.487 0 0 1 1.344-1.336c.583-.333 1.276-.5 2.078-.5.781 0 1.442.13 1.984.39.542.256.953.62 1.235 1.094.28.474.421 1.04.421 1.696 0 .364-.06.724-.18 1.078-.12.354-.288.705-.507 1.054a9.18 9.18 0 0 1-.766 1.047c-.297.354-.627.716-.992 1.086l-2.219 2.469h5.063Zm3.484-3.61-1.648-.398.633-5.742h6.257v1.71h-4.547l-.296 2.657c.161-.099.396-.198.703-.297a3.323 3.323 0 0 1 1.054-.156c.542 0 1.027.089 1.454.266.427.172.789.422 1.086.75.302.328.528.729.68 1.203.155.469.234 1 .234 1.594 0 .52-.079 1.01-.235 1.468a3.47 3.47 0 0 1-.695 1.211 3.303 3.303 0 0 1-1.18.828c-.474.198-1.031.297-1.672.297-.484 0-.95-.07-1.398-.21a3.924 3.924 0 0 1-1.195-.634 3.205 3.205 0 0 1-.852-1.03 3.317 3.317 0 0 1-.344-1.4h2.04c.036.35.13.647.28.891.152.245.35.433.594.563.25.13.54.195.867.195.297 0 .553-.054.766-.164.219-.114.399-.273.54-.476a2.15 2.15 0 0 0 .312-.72c.067-.275.101-.577.101-.905 0-.318-.039-.607-.117-.868a1.885 1.885 0 0 0-.36-.687 1.597 1.597 0 0 0-.609-.445 2.104 2.104 0 0 0-.843-.157c-.433 0-.766.065-1 .196a2.84 2.84 0 0 0-.61.46Z" fill="#fff"/></svg>